<mxfile host="app.diagrams.net" agent="Mozilla/5.0 (Windows NT 10.0; Win64; x64) AppleWebKit/537.36 (KHTML, like Gecko) Chrome/136.0.0.0 Safari/537.36" version="26.2.14">
  <diagram name="Page-1" id="FCgqFch-Zr8MTAoTyMl5">
    <mxGraphModel dx="1829" dy="1944" grid="0" gridSize="10" guides="1" tooltips="1" connect="1" arrows="1" fold="1" page="0" pageScale="1" pageWidth="850" pageHeight="1100" math="0" shadow="0">
      <root>
        <mxCell id="0" />
        <mxCell id="1" parent="0" />
        <mxCell id="BpyKgtoY-KuecPwc_zzV-1" value="Clients" style="rounded=0;whiteSpace=wrap;html=1;" parent="1" vertex="1">
          <mxGeometry x="-333" y="-644" width="120" height="60" as="geometry" />
        </mxCell>
        <mxCell id="BpyKgtoY-KuecPwc_zzV-2" value="Invoice" style="rounded=0;whiteSpace=wrap;html=1;" parent="1" vertex="1">
          <mxGeometry x="137.5" y="-648" width="120" height="60" as="geometry" />
        </mxCell>
        <mxCell id="BpyKgtoY-KuecPwc_zzV-3" value="Payments" style="rounded=0;whiteSpace=wrap;html=1;" parent="1" vertex="1">
          <mxGeometry x="130" y="-452" width="120" height="60" as="geometry" />
        </mxCell>
        <mxCell id="BpyKgtoY-KuecPwc_zzV-4" value="Contact Persons" style="rounded=0;whiteSpace=wrap;html=1;" parent="1" vertex="1">
          <mxGeometry x="-335" y="-395" width="120" height="60" as="geometry" />
        </mxCell>
        <mxCell id="BpyKgtoY-KuecPwc_zzV-5" value="Name" style="ellipse;whiteSpace=wrap;html=1;" parent="1" vertex="1">
          <mxGeometry x="-401" y="-744" width="73" height="48" as="geometry" />
        </mxCell>
        <mxCell id="BpyKgtoY-KuecPwc_zzV-28" style="edgeStyle=none;curved=1;rounded=0;orthogonalLoop=1;jettySize=auto;html=1;fontSize=12;startSize=8;endSize=8;" parent="1" source="BpyKgtoY-KuecPwc_zzV-6" target="BpyKgtoY-KuecPwc_zzV-1" edge="1">
          <mxGeometry relative="1" as="geometry" />
        </mxCell>
        <mxCell id="BpyKgtoY-KuecPwc_zzV-6" value="BInfo" style="ellipse;whiteSpace=wrap;html=1;" parent="1" vertex="1">
          <mxGeometry x="-302" y="-747" width="73" height="48" as="geometry" />
        </mxCell>
        <mxCell id="BpyKgtoY-KuecPwc_zzV-26" style="edgeStyle=none;curved=1;rounded=0;orthogonalLoop=1;jettySize=auto;html=1;exitX=1;exitY=1;exitDx=0;exitDy=0;entryX=0;entryY=0.25;entryDx=0;entryDy=0;fontSize=12;startSize=8;endSize=8;" parent="1" source="BpyKgtoY-KuecPwc_zzV-7" target="BpyKgtoY-KuecPwc_zzV-1" edge="1">
          <mxGeometry relative="1" as="geometry" />
        </mxCell>
        <mxCell id="BpyKgtoY-KuecPwc_zzV-7" value="Client ID" style="ellipse;whiteSpace=wrap;html=1;fontStyle=4" parent="1" vertex="1">
          <mxGeometry x="-467" y="-685" width="73" height="48" as="geometry" />
        </mxCell>
        <mxCell id="BpyKgtoY-KuecPwc_zzV-32" style="edgeStyle=none;curved=1;rounded=0;orthogonalLoop=1;jettySize=auto;html=1;exitX=1;exitY=1;exitDx=0;exitDy=0;entryX=0;entryY=0;entryDx=0;entryDy=0;fontSize=12;startSize=8;endSize=8;" parent="1" source="BpyKgtoY-KuecPwc_zzV-8" target="BpyKgtoY-KuecPwc_zzV-9" edge="1">
          <mxGeometry relative="1" as="geometry" />
        </mxCell>
        <mxCell id="BpyKgtoY-KuecPwc_zzV-8" value="Fname" style="ellipse;whiteSpace=wrap;html=1;" parent="1" vertex="1">
          <mxGeometry x="-509" y="-467" width="73" height="48" as="geometry" />
        </mxCell>
        <mxCell id="BpyKgtoY-KuecPwc_zzV-29" style="edgeStyle=none;curved=1;rounded=0;orthogonalLoop=1;jettySize=auto;html=1;entryX=0;entryY=0.25;entryDx=0;entryDy=0;fontSize=12;startSize=8;endSize=8;" parent="1" source="BpyKgtoY-KuecPwc_zzV-9" target="BpyKgtoY-KuecPwc_zzV-4" edge="1">
          <mxGeometry relative="1" as="geometry" />
        </mxCell>
        <mxCell id="BpyKgtoY-KuecPwc_zzV-9" value="Name" style="ellipse;whiteSpace=wrap;html=1;" parent="1" vertex="1">
          <mxGeometry x="-432" y="-419" width="73" height="48" as="geometry" />
        </mxCell>
        <mxCell id="BpyKgtoY-KuecPwc_zzV-31" style="edgeStyle=none;curved=1;rounded=0;orthogonalLoop=1;jettySize=auto;html=1;exitX=1;exitY=0.5;exitDx=0;exitDy=0;entryX=0;entryY=0.5;entryDx=0;entryDy=0;fontSize=12;startSize=8;endSize=8;" parent="1" source="BpyKgtoY-KuecPwc_zzV-11" target="BpyKgtoY-KuecPwc_zzV-9" edge="1">
          <mxGeometry relative="1" as="geometry" />
        </mxCell>
        <mxCell id="BpyKgtoY-KuecPwc_zzV-11" value="Lname" style="ellipse;whiteSpace=wrap;html=1;" parent="1" vertex="1">
          <mxGeometry x="-529" y="-402" width="73" height="48" as="geometry" />
        </mxCell>
        <mxCell id="BpyKgtoY-KuecPwc_zzV-38" style="edgeStyle=none;curved=1;rounded=0;orthogonalLoop=1;jettySize=auto;html=1;exitX=0;exitY=0.5;exitDx=0;exitDy=0;entryX=1;entryY=0;entryDx=0;entryDy=0;fontSize=12;startSize=8;endSize=8;" parent="1" source="BpyKgtoY-KuecPwc_zzV-12" target="BpyKgtoY-KuecPwc_zzV-15" edge="1">
          <mxGeometry relative="1" as="geometry" />
        </mxCell>
        <mxCell id="BpyKgtoY-KuecPwc_zzV-12" value="name" style="ellipse;whiteSpace=wrap;html=1;" parent="1" vertex="1">
          <mxGeometry x="380" y="-692" width="73" height="48" as="geometry" />
        </mxCell>
        <mxCell id="BpyKgtoY-KuecPwc_zzV-34" style="edgeStyle=none;curved=1;rounded=0;orthogonalLoop=1;jettySize=auto;html=1;exitX=0.5;exitY=1;exitDx=0;exitDy=0;entryX=0.5;entryY=0;entryDx=0;entryDy=0;fontSize=12;startSize=8;endSize=8;" parent="1" source="BpyKgtoY-KuecPwc_zzV-13" target="BpyKgtoY-KuecPwc_zzV-2" edge="1">
          <mxGeometry relative="1" as="geometry" />
        </mxCell>
        <mxCell id="BpyKgtoY-KuecPwc_zzV-13" value="ID inovice" style="ellipse;whiteSpace=wrap;html=1;fontStyle=4" parent="1" vertex="1">
          <mxGeometry x="188" y="-736" width="73" height="48" as="geometry" />
        </mxCell>
        <mxCell id="BpyKgtoY-KuecPwc_zzV-14" value="Due date" style="ellipse;whiteSpace=wrap;html=1;" parent="1" vertex="1">
          <mxGeometry x="277" y="-724" width="73" height="48" as="geometry" />
        </mxCell>
        <mxCell id="BpyKgtoY-KuecPwc_zzV-35" style="edgeStyle=none;curved=1;rounded=0;orthogonalLoop=1;jettySize=auto;html=1;exitX=0;exitY=0.5;exitDx=0;exitDy=0;entryX=1;entryY=0.5;entryDx=0;entryDy=0;fontSize=12;startSize=8;endSize=8;" parent="1" source="BpyKgtoY-KuecPwc_zzV-15" target="BpyKgtoY-KuecPwc_zzV-2" edge="1">
          <mxGeometry relative="1" as="geometry" />
        </mxCell>
        <mxCell id="BpyKgtoY-KuecPwc_zzV-15" value="Item" style="ellipse;whiteSpace=wrap;html=1;" parent="1" vertex="1">
          <mxGeometry x="302" y="-644" width="73" height="48" as="geometry" />
        </mxCell>
        <mxCell id="BpyKgtoY-KuecPwc_zzV-37" style="edgeStyle=none;curved=1;rounded=0;orthogonalLoop=1;jettySize=auto;html=1;exitX=0;exitY=0.5;exitDx=0;exitDy=0;entryX=1;entryY=0.5;entryDx=0;entryDy=0;fontSize=12;startSize=8;endSize=8;" parent="1" source="BpyKgtoY-KuecPwc_zzV-16" target="BpyKgtoY-KuecPwc_zzV-15" edge="1">
          <mxGeometry relative="1" as="geometry" />
        </mxCell>
        <mxCell id="BpyKgtoY-KuecPwc_zzV-16" value="Quntity" style="ellipse;whiteSpace=wrap;html=1;" parent="1" vertex="1">
          <mxGeometry x="419" y="-632" width="73" height="48" as="geometry" />
        </mxCell>
        <mxCell id="BpyKgtoY-KuecPwc_zzV-17" value="Price" style="ellipse;whiteSpace=wrap;html=1;" parent="1" vertex="1">
          <mxGeometry x="362" y="-574" width="73" height="48" as="geometry" />
        </mxCell>
        <mxCell id="BpyKgtoY-KuecPwc_zzV-39" style="edgeStyle=none;curved=1;rounded=0;orthogonalLoop=1;jettySize=auto;html=1;exitX=0;exitY=1;exitDx=0;exitDy=0;fontSize=12;startSize=8;endSize=8;" parent="1" source="BpyKgtoY-KuecPwc_zzV-18" target="BpyKgtoY-KuecPwc_zzV-3" edge="1">
          <mxGeometry relative="1" as="geometry" />
        </mxCell>
        <mxCell id="BpyKgtoY-KuecPwc_zzV-18" value="Pay ID" style="ellipse;whiteSpace=wrap;html=1;fontStyle=4" parent="1" vertex="1">
          <mxGeometry x="281" y="-461" width="73" height="48" as="geometry" />
        </mxCell>
        <mxCell id="BpyKgtoY-KuecPwc_zzV-40" style="edgeStyle=none;curved=1;rounded=0;orthogonalLoop=1;jettySize=auto;html=1;exitX=0;exitY=0.5;exitDx=0;exitDy=0;entryX=1;entryY=0.75;entryDx=0;entryDy=0;fontSize=12;startSize=8;endSize=8;" parent="1" source="BpyKgtoY-KuecPwc_zzV-19" target="BpyKgtoY-KuecPwc_zzV-3" edge="1">
          <mxGeometry relative="1" as="geometry" />
        </mxCell>
        <mxCell id="BpyKgtoY-KuecPwc_zzV-19" value="Method" style="ellipse;whiteSpace=wrap;html=1;" parent="1" vertex="1">
          <mxGeometry x="302" y="-402" width="73" height="48" as="geometry" />
        </mxCell>
        <mxCell id="BpyKgtoY-KuecPwc_zzV-20" value="Status" style="ellipse;whiteSpace=wrap;html=1;" parent="1" vertex="1">
          <mxGeometry x="242" y="-361" width="73" height="48" as="geometry" />
        </mxCell>
        <mxCell id="BpyKgtoY-KuecPwc_zzV-42" style="edgeStyle=none;curved=1;rounded=0;orthogonalLoop=1;jettySize=auto;html=1;exitX=0.5;exitY=0;exitDx=0;exitDy=0;entryX=0.5;entryY=1;entryDx=0;entryDy=0;fontSize=12;startSize=8;endSize=8;" parent="1" source="BpyKgtoY-KuecPwc_zzV-21" target="BpyKgtoY-KuecPwc_zzV-3" edge="1">
          <mxGeometry relative="1" as="geometry" />
        </mxCell>
        <mxCell id="BpyKgtoY-KuecPwc_zzV-21" value="ConNum" style="ellipse;whiteSpace=wrap;html=1;" parent="1" vertex="1">
          <mxGeometry x="161" y="-352" width="73" height="48" as="geometry" />
        </mxCell>
        <mxCell id="BpyKgtoY-KuecPwc_zzV-45" style="edgeStyle=none;curved=1;rounded=0;orthogonalLoop=1;jettySize=auto;html=1;exitX=0;exitY=1;exitDx=0;exitDy=0;entryX=1;entryY=0;entryDx=0;entryDy=0;fontSize=12;startSize=8;endSize=8;" parent="1" source="BpyKgtoY-KuecPwc_zzV-22" target="BpyKgtoY-KuecPwc_zzV-19" edge="1">
          <mxGeometry relative="1" as="geometry" />
        </mxCell>
        <mxCell id="BpyKgtoY-KuecPwc_zzV-22" value="Bank" style="ellipse;whiteSpace=wrap;html=1;" parent="1" vertex="1">
          <mxGeometry x="419" y="-446" width="73" height="48" as="geometry" />
        </mxCell>
        <mxCell id="BpyKgtoY-KuecPwc_zzV-44" style="edgeStyle=none;curved=1;rounded=0;orthogonalLoop=1;jettySize=auto;html=1;exitX=0;exitY=0.5;exitDx=0;exitDy=0;entryX=1;entryY=0.5;entryDx=0;entryDy=0;fontSize=12;startSize=8;endSize=8;" parent="1" source="BpyKgtoY-KuecPwc_zzV-23" target="BpyKgtoY-KuecPwc_zzV-19" edge="1">
          <mxGeometry relative="1" as="geometry" />
        </mxCell>
        <mxCell id="BpyKgtoY-KuecPwc_zzV-23" value="Cash" style="ellipse;whiteSpace=wrap;html=1;" parent="1" vertex="1">
          <mxGeometry x="447" y="-387" width="73" height="48" as="geometry" />
        </mxCell>
        <mxCell id="BpyKgtoY-KuecPwc_zzV-24" value="Card" style="ellipse;whiteSpace=wrap;html=1;" parent="1" vertex="1">
          <mxGeometry x="393" y="-339" width="73" height="48" as="geometry" />
        </mxCell>
        <mxCell id="BpyKgtoY-KuecPwc_zzV-27" style="edgeStyle=none;curved=1;rounded=0;orthogonalLoop=1;jettySize=auto;html=1;exitX=0.5;exitY=1;exitDx=0;exitDy=0;entryX=0.2;entryY=0.083;entryDx=0;entryDy=0;entryPerimeter=0;fontSize=12;startSize=8;endSize=8;" parent="1" source="BpyKgtoY-KuecPwc_zzV-5" target="BpyKgtoY-KuecPwc_zzV-1" edge="1">
          <mxGeometry relative="1" as="geometry" />
        </mxCell>
        <mxCell id="BpyKgtoY-KuecPwc_zzV-33" style="edgeStyle=none;curved=1;rounded=0;orthogonalLoop=1;jettySize=auto;html=1;exitX=0;exitY=1;exitDx=0;exitDy=0;entryX=0.858;entryY=0.017;entryDx=0;entryDy=0;entryPerimeter=0;fontSize=12;startSize=8;endSize=8;" parent="1" source="BpyKgtoY-KuecPwc_zzV-14" target="BpyKgtoY-KuecPwc_zzV-2" edge="1">
          <mxGeometry relative="1" as="geometry" />
        </mxCell>
        <mxCell id="BpyKgtoY-KuecPwc_zzV-36" style="edgeStyle=none;curved=1;rounded=0;orthogonalLoop=1;jettySize=auto;html=1;exitX=0;exitY=0;exitDx=0;exitDy=0;entryX=0.671;entryY=0.896;entryDx=0;entryDy=0;entryPerimeter=0;fontSize=12;startSize=8;endSize=8;" parent="1" source="BpyKgtoY-KuecPwc_zzV-17" target="BpyKgtoY-KuecPwc_zzV-15" edge="1">
          <mxGeometry relative="1" as="geometry" />
        </mxCell>
        <mxCell id="BpyKgtoY-KuecPwc_zzV-41" style="edgeStyle=none;curved=1;rounded=0;orthogonalLoop=1;jettySize=auto;html=1;exitX=0;exitY=0;exitDx=0;exitDy=0;entryX=0.908;entryY=1;entryDx=0;entryDy=0;entryPerimeter=0;fontSize=12;startSize=8;endSize=8;" parent="1" source="BpyKgtoY-KuecPwc_zzV-20" target="BpyKgtoY-KuecPwc_zzV-3" edge="1">
          <mxGeometry relative="1" as="geometry" />
        </mxCell>
        <mxCell id="BpyKgtoY-KuecPwc_zzV-43" style="edgeStyle=none;curved=1;rounded=0;orthogonalLoop=1;jettySize=auto;html=1;exitX=0;exitY=0;exitDx=0;exitDy=0;entryX=0.959;entryY=0.729;entryDx=0;entryDy=0;entryPerimeter=0;fontSize=12;startSize=8;endSize=8;" parent="1" source="BpyKgtoY-KuecPwc_zzV-24" target="BpyKgtoY-KuecPwc_zzV-19" edge="1">
          <mxGeometry relative="1" as="geometry" />
        </mxCell>
        <mxCell id="BpyKgtoY-KuecPwc_zzV-48" style="edgeStyle=none;curved=1;rounded=0;orthogonalLoop=1;jettySize=auto;html=1;exitX=1;exitY=0;exitDx=0;exitDy=0;entryX=0;entryY=0.75;entryDx=0;entryDy=0;fontSize=12;startSize=8;endSize=8;" parent="1" source="BpyKgtoY-KuecPwc_zzV-46" target="BpyKgtoY-KuecPwc_zzV-4" edge="1">
          <mxGeometry relative="1" as="geometry" />
        </mxCell>
        <mxCell id="BpyKgtoY-KuecPwc_zzV-46" value="Phone No" style="ellipse;shape=doubleEllipse;margin=3;whiteSpace=wrap;html=1;align=center;" parent="1" vertex="1">
          <mxGeometry x="-451" y="-333" width="100" height="40" as="geometry" />
        </mxCell>
        <mxCell id="BpyKgtoY-KuecPwc_zzV-49" value="Register" style="shape=rhombus;perimeter=rhombusPerimeter;whiteSpace=wrap;html=1;align=center;" parent="1" vertex="1">
          <mxGeometry x="-308" y="-510" width="85" height="52" as="geometry" />
        </mxCell>
        <mxCell id="BpyKgtoY-KuecPwc_zzV-50" style="edgeStyle=none;curved=1;rounded=0;orthogonalLoop=1;jettySize=auto;html=1;entryX=0.558;entryY=0.967;entryDx=0;entryDy=0;entryPerimeter=0;fontSize=12;endArrow=none;startFill=0;shape=link;" parent="1" source="BpyKgtoY-KuecPwc_zzV-49" target="BpyKgtoY-KuecPwc_zzV-1" edge="1">
          <mxGeometry relative="1" as="geometry" />
        </mxCell>
        <mxCell id="BpyKgtoY-KuecPwc_zzV-51" style="edgeStyle=none;curved=1;rounded=0;orthogonalLoop=1;jettySize=auto;html=1;exitX=0.5;exitY=1;exitDx=0;exitDy=0;entryX=0.583;entryY=0;entryDx=0;entryDy=0;entryPerimeter=0;fontSize=12;endArrow=none;startFill=0;shape=link;" parent="1" source="BpyKgtoY-KuecPwc_zzV-49" target="BpyKgtoY-KuecPwc_zzV-4" edge="1">
          <mxGeometry relative="1" as="geometry" />
        </mxCell>
        <mxCell id="BpyKgtoY-KuecPwc_zzV-56" style="edgeStyle=none;curved=1;rounded=0;orthogonalLoop=1;jettySize=auto;html=1;exitX=1;exitY=1;exitDx=0;exitDy=0;entryX=0;entryY=0.25;entryDx=0;entryDy=0;fontSize=12;endArrow=none;startFill=0;shape=link;" parent="1" source="BpyKgtoY-KuecPwc_zzV-52" target="BpyKgtoY-KuecPwc_zzV-3" edge="1">
          <mxGeometry relative="1" as="geometry" />
        </mxCell>
        <mxCell id="BpyKgtoY-KuecPwc_zzV-57" style="edgeStyle=none;curved=1;rounded=0;orthogonalLoop=1;jettySize=auto;html=1;exitX=0;exitY=0;exitDx=0;exitDy=0;entryX=1;entryY=1;entryDx=0;entryDy=0;fontSize=12;endArrow=none;startFill=0;shape=link;" parent="1" source="BpyKgtoY-KuecPwc_zzV-52" target="BpyKgtoY-KuecPwc_zzV-1" edge="1">
          <mxGeometry relative="1" as="geometry" />
        </mxCell>
        <mxCell id="BpyKgtoY-KuecPwc_zzV-52" value="Make" style="shape=rhombus;perimeter=rhombusPerimeter;whiteSpace=wrap;html=1;align=center;" parent="1" vertex="1">
          <mxGeometry x="-64" y="-530" width="85" height="52" as="geometry" />
        </mxCell>
        <mxCell id="BpyKgtoY-KuecPwc_zzV-54" style="edgeStyle=none;curved=1;rounded=0;orthogonalLoop=1;jettySize=auto;html=1;exitX=0;exitY=0.5;exitDx=0;exitDy=0;entryX=1;entryY=0.5;entryDx=0;entryDy=0;fontSize=12;endArrow=none;startFill=0;shape=link;" parent="1" source="BpyKgtoY-KuecPwc_zzV-53" target="BpyKgtoY-KuecPwc_zzV-1" edge="1">
          <mxGeometry relative="1" as="geometry" />
        </mxCell>
        <mxCell id="BpyKgtoY-KuecPwc_zzV-55" style="edgeStyle=none;curved=1;rounded=0;orthogonalLoop=1;jettySize=auto;html=1;exitX=1;exitY=0.5;exitDx=0;exitDy=0;entryX=0;entryY=0.5;entryDx=0;entryDy=0;fontSize=12;startSize=8;endSize=8;endArrow=none;startFill=0;" parent="1" source="BpyKgtoY-KuecPwc_zzV-53" target="BpyKgtoY-KuecPwc_zzV-2" edge="1">
          <mxGeometry relative="1" as="geometry" />
        </mxCell>
        <mxCell id="BpyKgtoY-KuecPwc_zzV-53" value="Have" style="shape=rhombus;perimeter=rhombusPerimeter;whiteSpace=wrap;html=1;align=center;" parent="1" vertex="1">
          <mxGeometry x="-50" y="-644" width="85" height="52" as="geometry" />
        </mxCell>
        <mxCell id="BpyKgtoY-KuecPwc_zzV-60" value="M" style="text;html=1;align=center;verticalAlign=middle;resizable=0;points=[];autosize=1;strokeColor=none;fillColor=none;fontSize=16;" parent="1" vertex="1">
          <mxGeometry x="-265" y="-538" width="31" height="31" as="geometry" />
        </mxCell>
        <mxCell id="BpyKgtoY-KuecPwc_zzV-61" value="N" style="text;html=1;align=center;verticalAlign=middle;resizable=0;points=[];autosize=1;strokeColor=none;fillColor=none;fontSize=16;" parent="1" vertex="1">
          <mxGeometry x="-263" y="-463" width="30" height="31" as="geometry" />
        </mxCell>
        <mxCell id="BpyKgtoY-KuecPwc_zzV-62" value="1" style="text;html=1;align=center;verticalAlign=middle;resizable=0;points=[];autosize=1;strokeColor=none;fillColor=none;fontSize=16;" parent="1" vertex="1">
          <mxGeometry x="-213" y="-644" width="27" height="31" as="geometry" />
        </mxCell>
        <mxCell id="BpyKgtoY-KuecPwc_zzV-63" value="M" style="text;html=1;align=center;verticalAlign=middle;resizable=0;points=[];autosize=1;strokeColor=none;fillColor=none;fontSize=16;" parent="1" vertex="1">
          <mxGeometry x="-213" y="-608" width="31" height="31" as="geometry" />
        </mxCell>
        <mxCell id="BpyKgtoY-KuecPwc_zzV-64" value="M" style="text;html=1;align=center;verticalAlign=middle;resizable=0;points=[];autosize=1;strokeColor=none;fillColor=none;fontSize=16;" parent="1" vertex="1">
          <mxGeometry x="82" y="-486" width="31" height="31" as="geometry" />
        </mxCell>
        <mxCell id="BpyKgtoY-KuecPwc_zzV-65" value="M" style="text;html=1;align=center;verticalAlign=middle;resizable=0;points=[];autosize=1;strokeColor=none;fillColor=none;fontSize=16;" parent="1" vertex="1">
          <mxGeometry x="102" y="-648" width="31" height="31" as="geometry" />
        </mxCell>
      </root>
    </mxGraphModel>
  </diagram>
</mxfile>
